# xmcd CD database file
#
# Track frame offsets:
#	150
#	18603
#	39358
#	56512
#	75925
#	94613
#	113425
#	134200
#	151691
#	168765
#
# Disc length: 2434 seconds
#
# Revision: 0
# Processed by: cddbd v1.5.2PL0 Copyright (c) Steve Scherf et al.
# Submitted via: CDex 1.70beta2
#
DISCID=6909800a
DTITLE=David Benoit - Jazz for Peanuts
DYEAR=2008
DGENRE=Jazz
TTITLE0=You're In Love, Charlie Brown
TTITLE1=Buggy Ride
TTITLE2=Benjamin
TTITLE3=Great Pumpkin Waltz
TTITLE4=Wild Kids
TTITLE5=Breadline Blues
TTITLE6=Be My Valentine
TTITLE7=Rollerblading
TTITLE8=Re-Run's Theme
TTITLE9=Linus And Lucy
EXTD=YEAR: 2008
EXTT0=
EXTT1=
EXTT2=
EXTT3=
EXTT4=
EXTT5=
EXTT6=
EXTT7=
EXTT8=
EXTT9=
PLAYORDER=
